<svg width="1236" height="256" viewBox="0 0 1236 256" fill="none" xmlns="http://www.w3.org/2000/svg">
<path fill-rule="evenodd" clip-rule="evenodd" d="M204.812 230.4C235.895 207.047 256 169.872 256 128C256 57.3075 198.692 0 128 0C57.3075 0 0 57.3075 0 128C0 198.236 56.5691 255.259 126.631 255.993C126.774 255.998 126.919 256 127.063 256H242.888C249.957 256 255.688 250.269 255.688 243.2C255.688 236.131 249.957 230.4 242.888 230.4H204.812ZM128.312 142.361C136.071 142.361 142.361 136.071 142.361 128.312C142.361 120.554 136.071 114.263 128.312 114.263C120.554 114.263 114.263 120.554 114.263 128.312C114.263 136.071 120.554 142.361 128.312 142.361ZM153.6 63.6878C153.6 77.8265 142.139 89.2878 128 89.2878C113.861 89.2878 102.4 77.8265 102.4 63.6878C102.4 49.5493 113.861 38.0878 128 38.0878C142.139 38.0878 153.6 49.5493 153.6 63.6878ZM128 218.537C142.139 218.537 153.6 207.075 153.6 192.937C153.6 178.798 142.139 167.337 128 167.337C113.861 167.337 102.4 178.798 102.4 192.937C102.4 207.075 113.861 218.537 128 218.537ZM89.2878 128C89.2878 142.139 77.8265 153.6 63.6878 153.6C49.5493 153.6 38.0878 142.139 38.0878 128C38.0878 113.861 49.5493 102.4 63.6878 102.4C77.8265 102.4 89.2878 113.861 89.2878 128ZM192.937 153.6C207.075 153.6 218.537 142.139 218.537 128C218.537 113.861 207.075 102.4 192.937 102.4C178.798 102.4 167.337 113.861 167.337 128C167.337 142.139 178.798 153.6 192.937 153.6Z" fill="url(#paint0_linear_415_344)"/>
<path d="M369.459 184.542C361.062 184.542 353.587 182.75 347.034 179.166C340.48 175.479 335.309 170.462 331.52 164.113C327.731 157.764 325.837 150.545 325.837 142.455C325.837 134.263 327.731 127.044 331.52 120.798C335.309 114.449 340.48 109.483 347.034 105.899C353.587 102.315 361.062 100.523 369.459 100.523C377.958 100.523 385.485 102.315 392.038 105.899C398.694 109.483 403.866 114.398 407.552 120.644C411.341 126.891 413.235 134.161 413.235 142.455C413.235 150.545 411.341 157.764 407.552 164.113C403.866 170.462 398.694 175.479 392.038 179.166C385.485 182.75 377.958 184.542 369.459 184.542ZM369.459 168.107C374.17 168.107 378.368 167.083 382.054 165.035C385.741 162.987 388.608 160.017 390.656 156.126C392.806 152.235 393.882 147.678 393.882 142.455C393.882 137.131 392.806 132.574 390.656 128.785C388.608 124.894 385.741 121.924 382.054 119.876C378.368 117.828 374.221 116.804 369.613 116.804C364.902 116.804 360.704 117.828 357.018 119.876C353.434 121.924 350.566 124.894 348.416 128.785C346.266 132.574 345.19 137.131 345.19 142.455C345.19 147.678 346.266 152.235 348.416 156.126C350.566 160.017 353.434 162.987 357.018 165.035C360.704 167.083 364.851 168.107 369.459 168.107Z" fill="url(#paint1_linear_415_344)"/>
<path d="M431.595 183.467V101.444H450.795V183.467H431.595ZM441.272 87.9275C437.688 87.9275 434.718 86.8011 432.363 84.5483C430.11 82.2955 428.984 79.5819 428.984 76.4075C428.984 73.1307 430.11 70.4171 432.363 68.2667C434.718 66.0139 437.688 64.8875 441.272 64.8875C444.856 64.8875 447.774 65.9627 450.027 68.1131C452.382 70.1611 453.56 72.7723 453.56 75.9467C453.56 79.3259 452.434 82.1931 450.181 84.5483C447.928 86.8011 444.958 87.9275 441.272 87.9275Z" fill="url(#paint2_linear_415_344)"/>
<path d="M521.461 184.542C514.498 184.542 508.302 183.006 502.875 179.934C497.448 176.862 493.147 172.254 489.973 166.11C486.901 159.863 485.365 151.979 485.365 142.455C485.365 132.83 486.952 124.945 490.126 118.801C493.403 112.657 497.755 108.1 503.182 105.131C508.712 102.059 514.805 100.523 521.461 100.523C529.55 100.523 536.667 102.263 542.811 105.745C549.058 109.227 553.973 114.091 557.557 120.337C561.243 126.583 563.086 133.956 563.086 142.455C563.086 150.955 561.243 158.327 557.557 164.574C553.973 170.82 549.058 175.735 542.811 179.319C536.667 182.801 529.55 184.542 521.461 184.542ZM475.995 183.467V69.4955H495.195V120.491L493.659 142.302L494.274 164.113V183.467H475.995ZM519.31 168.107C523.918 168.107 528.014 167.083 531.598 165.035C535.285 162.987 538.203 160.017 540.354 156.126C542.504 152.235 543.579 147.678 543.579 142.455C543.579 137.131 542.504 132.574 540.354 128.785C538.203 124.894 535.285 121.924 531.598 119.876C528.014 117.828 523.918 116.804 519.31 116.804C514.702 116.804 510.555 117.828 506.869 119.876C503.182 121.924 500.264 124.894 498.114 128.785C495.963 132.574 494.888 137.131 494.888 142.455C494.888 147.678 495.963 152.235 498.114 156.126C500.264 160.017 503.182 162.987 506.869 165.035C510.555 167.083 514.702 168.107 519.31 168.107Z" fill="url(#paint3_linear_415_344)"/>
<path d="M618.159 184.542C609.762 184.542 602.287 182.75 595.734 179.166C589.18 175.479 584.009 170.462 580.22 164.113C576.431 157.764 574.537 150.545 574.537 142.455C574.537 134.263 576.431 127.044 580.22 120.798C584.009 114.449 589.18 109.483 595.734 105.899C602.287 102.315 609.762 100.523 618.159 100.523C626.658 100.523 634.185 102.315 640.738 105.899C647.394 109.483 652.566 114.398 656.252 120.644C660.041 126.891 661.935 134.161 661.935 142.455C661.935 150.545 660.041 157.764 656.252 164.113C652.566 170.462 647.394 175.479 640.738 179.166C634.185 182.75 626.658 184.542 618.159 184.542ZM618.159 168.107C622.87 168.107 627.068 167.083 630.754 165.035C634.441 162.987 637.308 160.017 639.356 156.126C641.506 152.235 642.582 147.678 642.582 142.455C642.582 137.131 641.506 132.574 639.356 128.785C637.308 124.894 634.441 121.924 630.754 119.876C627.068 117.828 622.921 116.804 618.313 116.804C613.602 116.804 609.404 117.828 605.718 119.876C602.134 121.924 599.266 124.894 597.116 128.785C594.966 132.574 593.89 137.131 593.89 142.455C593.89 147.678 594.966 152.235 597.116 156.126C599.266 160.017 602.134 162.987 605.718 165.035C609.404 167.083 613.551 168.107 618.159 168.107Z" fill="url(#paint4_linear_415_344)"/>
<path d="M684.804 214.34C680.81 214.34 676.816 213.675 672.823 212.343C668.829 211.012 665.501 209.169 662.839 206.814L670.519 192.683C672.464 194.423 674.666 195.806 677.124 196.83C679.581 197.854 682.09 198.366 684.65 198.366C688.132 198.366 690.948 197.495 693.098 195.755C695.248 194.014 697.245 191.095 699.088 186.999L703.85 176.247L705.386 173.943L736.413 101.444H754.845L716.445 190.071C713.885 196.215 711.018 201.079 707.844 204.663C704.772 208.247 701.29 210.756 697.399 212.19C693.61 213.623 689.412 214.34 684.804 214.34ZM701.7 186.385L664.682 101.444H684.65L714.756 172.254L701.7 186.385Z" fill="url(#paint5_linear_415_344)"/>
<path d="M870.372 100.523C876.925 100.523 882.711 101.803 887.728 104.363C892.848 106.923 896.842 110.865 899.709 116.19C902.576 121.412 904.01 128.171 904.01 136.465V183.467H884.81V138.923C884.81 131.652 883.223 126.225 880.048 122.641C876.874 119.057 872.317 117.265 866.378 117.265C862.18 117.265 858.442 118.187 855.165 120.03C851.991 121.873 849.482 124.587 847.639 128.171C845.898 131.755 845.028 136.311 845.028 141.841V183.467H825.828V138.923C825.828 131.652 824.24 126.225 821.066 122.641C817.892 119.057 813.335 117.265 807.396 117.265C803.197 117.265 799.46 118.187 796.183 120.03C793.008 121.873 790.5 124.587 788.656 128.171C786.916 131.755 786.045 136.311 786.045 141.841V183.467H766.845V101.444H785.124V123.255L781.898 116.804C784.663 111.479 788.656 107.435 793.879 104.67C799.204 101.905 805.245 100.523 812.004 100.523C819.684 100.523 826.34 102.417 831.972 106.206C837.706 109.995 841.495 115.729 843.338 123.409L835.812 120.798C838.474 114.654 842.877 109.739 849.021 106.052C855.165 102.366 862.282 100.523 870.372 100.523Z" fill="url(#paint6_linear_415_344)"/>
<path d="M965.559 184.542C957.162 184.542 949.687 182.75 943.134 179.166C936.58 175.479 931.409 170.462 927.62 164.113C923.831 157.764 921.937 150.545 921.937 142.455C921.937 134.263 923.831 127.044 927.62 120.798C931.409 114.449 936.58 109.483 943.134 105.899C949.687 102.315 957.162 100.523 965.559 100.523C974.058 100.523 981.585 102.315 988.138 105.899C994.794 109.483 999.966 114.398 1003.65 120.644C1007.44 126.891 1009.34 134.161 1009.34 142.455C1009.34 150.545 1007.44 157.764 1003.65 164.113C999.966 170.462 994.794 175.479 988.138 179.166C981.585 182.75 974.058 184.542 965.559 184.542ZM965.559 168.107C970.27 168.107 974.468 167.083 978.154 165.035C981.841 162.987 984.708 160.017 986.756 156.126C988.906 152.235 989.982 147.678 989.982 142.455C989.982 137.131 988.906 132.574 986.756 128.785C984.708 124.894 981.841 121.924 978.154 119.876C974.468 117.828 970.321 116.804 965.713 116.804C961.002 116.804 956.804 117.828 953.118 119.876C949.534 121.924 946.666 124.894 944.516 128.785C942.366 132.574 941.29 137.131 941.29 142.455C941.29 147.678 942.366 152.235 944.516 156.126C946.666 160.017 949.534 162.987 953.118 165.035C956.804 167.083 960.951 168.107 965.559 168.107Z" fill="url(#paint7_linear_415_344)"/>
<path d="M1047.26 183.467L1012.08 101.444H1032.05L1062.31 173.79H1052.48L1083.81 101.444H1102.25L1067.07 183.467H1047.26Z" fill="url(#paint8_linear_415_344)"/>
<path d="M1114.25 183.467V101.444H1133.45V183.467H1114.25ZM1123.92 87.9275C1120.34 87.9275 1117.37 86.8011 1115.01 84.5483C1112.76 82.2955 1111.63 79.5819 1111.63 76.4075C1111.63 73.1307 1112.76 70.4171 1115.01 68.2667C1117.37 66.0139 1120.34 64.8875 1123.92 64.8875C1127.51 64.8875 1130.42 65.9627 1132.68 68.1131C1135.03 70.1611 1136.21 72.7723 1136.21 75.9467C1136.21 79.3259 1135.08 82.1931 1132.83 84.5483C1130.58 86.8011 1127.61 87.9275 1123.92 87.9275Z" fill="url(#paint9_linear_415_344)"/>
<path d="M1197.2 184.542C1188.09 184.542 1180.1 182.75 1173.24 179.166C1166.48 175.479 1161.21 170.462 1157.42 164.113C1153.73 157.764 1151.89 150.545 1151.89 142.455C1151.89 134.263 1153.68 127.044 1157.26 120.798C1160.95 114.449 1165.97 109.483 1172.32 105.899C1178.77 102.315 1186.09 100.523 1194.28 100.523C1202.27 100.523 1209.38 102.263 1215.63 105.745C1221.88 109.227 1226.79 114.142 1230.38 120.491C1233.96 126.839 1235.75 134.315 1235.75 142.916C1235.75 143.735 1235.7 144.657 1235.6 145.681C1235.6 146.705 1235.55 147.678 1235.45 148.599H1167.09V135.851H1225.31L1217.78 139.844C1217.88 135.134 1216.91 130.987 1214.86 127.403C1212.81 123.819 1210 121.003 1206.41 118.955C1202.93 116.907 1198.89 115.883 1194.28 115.883C1189.57 115.883 1185.42 116.907 1181.84 118.955C1178.36 121.003 1175.59 123.87 1173.54 127.556C1171.6 131.14 1170.63 135.39 1170.63 140.305V143.377C1170.63 148.292 1171.75 152.644 1174.01 156.433C1176.26 160.222 1179.43 163.14 1183.53 165.188C1187.62 167.236 1192.33 168.26 1197.66 168.26C1202.27 168.26 1206.41 167.543 1210.1 166.11C1213.79 164.676 1217.06 162.423 1219.93 159.351L1230.22 171.179C1226.54 175.479 1221.88 178.807 1216.25 181.163C1210.72 183.415 1204.37 184.542 1197.2 184.542Z" fill="url(#paint10_linear_415_344)"/>
<defs>
<linearGradient id="paint0_linear_415_344" x1="1235.75" y1="127.989" x2="-0.000124029" y2="127.989" gradientUnits="userSpaceOnUse">
<stop stop-color="#FF5936"/>
<stop offset="1" stop-color="#FE9D34"/>
</linearGradient>
<linearGradient id="paint1_linear_415_344" x1="1235.75" y1="127.989" x2="-0.000124029" y2="127.989" gradientUnits="userSpaceOnUse">
<stop stop-color="#FF5936"/>
<stop offset="1" stop-color="#FE9D34"/>
</linearGradient>
<linearGradient id="paint2_linear_415_344" x1="1235.75" y1="127.989" x2="-0.000124029" y2="127.989" gradientUnits="userSpaceOnUse">
<stop stop-color="#FF5936"/>
<stop offset="1" stop-color="#FE9D34"/>
</linearGradient>
<linearGradient id="paint3_linear_415_344" x1="1235.75" y1="127.989" x2="-0.000124029" y2="127.989" gradientUnits="userSpaceOnUse">
<stop stop-color="#FF5936"/>
<stop offset="1" stop-color="#FE9D34"/>
</linearGradient>
<linearGradient id="paint4_linear_415_344" x1="1235.75" y1="127.989" x2="-0.000124029" y2="127.989" gradientUnits="userSpaceOnUse">
<stop stop-color="#FF5936"/>
<stop offset="1" stop-color="#FE9D34"/>
</linearGradient>
<linearGradient id="paint5_linear_415_344" x1="1235.75" y1="127.989" x2="-0.000124029" y2="127.989" gradientUnits="userSpaceOnUse">
<stop stop-color="#FF5936"/>
<stop offset="1" stop-color="#FE9D34"/>
</linearGradient>
<linearGradient id="paint6_linear_415_344" x1="1235.75" y1="127.989" x2="-0.000124029" y2="127.989" gradientUnits="userSpaceOnUse">
<stop stop-color="#FF5936"/>
<stop offset="1" stop-color="#FE9D34"/>
</linearGradient>
<linearGradient id="paint7_linear_415_344" x1="1235.75" y1="127.989" x2="-0.000124029" y2="127.989" gradientUnits="userSpaceOnUse">
<stop stop-color="#FF5936"/>
<stop offset="1" stop-color="#FE9D34"/>
</linearGradient>
<linearGradient id="paint8_linear_415_344" x1="1235.75" y1="127.989" x2="-0.000124029" y2="127.989" gradientUnits="userSpaceOnUse">
<stop stop-color="#FF5936"/>
<stop offset="1" stop-color="#FE9D34"/>
</linearGradient>
<linearGradient id="paint9_linear_415_344" x1="1235.75" y1="127.989" x2="-0.000124029" y2="127.989" gradientUnits="userSpaceOnUse">
<stop stop-color="#FF5936"/>
<stop offset="1" stop-color="#FE9D34"/>
</linearGradient>
<linearGradient id="paint10_linear_415_344" x1="1235.75" y1="127.989" x2="-0.000124029" y2="127.989" gradientUnits="userSpaceOnUse">
<stop stop-color="#FF5936"/>
<stop offset="1" stop-color="#FE9D34"/>
</linearGradient>
</defs>
</svg>
